# xmcd
#
# Track frame offsets: 
#        150
#        15121
#        30066
#        47213
#        65021
#        82697
#        102868
#        116658
#        132859
#        148931
#        166282
#        182829
#        201350
#
# Disc length: 2883 seconds
#
# Revision: 0
# Processed by: cddbd v1.5.2PL0 Copyright (c) Steve Scherf et al.
# Submitted via: ExactAudioCopy v0.99pb5
#
DISCID=a50b410d
DTITLE=Adrienne Pierce - Faultline
DYEAR=2008
DGENRE=Pop-Folk
TTITLE0=Beautiful
TTITLE1=Downside Of Love
TTITLE2=Better Year
TTITLE3=Fool's Gold
TTITLE4=I Don't Know
TTITLE5=Laundry And Dishes
TTITLE6=Reaching For Me
TTITLE7=Lost and Found
TTITLE8=Under That Cloud
TTITLE9=One Perfect Day
TTITLE10=Faultline
TTITLE11=Walk Through Me
TTITLE12=Better Things To Do
EXTD=
EXTT0=
EXTT1=
EXTT2=
EXTT3=
EXTT4=
EXTT5=
EXTT6=
EXTT7=
EXTT8=
EXTT9=
EXTT10=
EXTT11=
EXTT12=
PLAYORDER=
